<mxfile host="app.diagrams.net" modified="2023-09-25T04:56:12.338Z" agent="Mozilla/5.0 (X11; Linux x86_64) AppleWebKit/537.36 (KHTML, like Gecko) Chrome/91.0.4472.101 Safari/537.36" version="21.8.2" etag="kfIpL-tjjG7aoSBLObsF" type="github">
  <diagram name="PÃ¡gina-1" id="HebRu0xrV_1ljG3HDyC-">
    <mxGraphModel>
      <root>
        <mxCell id="0" />
        <mxCell id="1" parent="0" />
      </root>
    </mxGraphModel>
  </diagram>
</mxfile>
